PathFileType	4	(X/Y/Z)	C:/Users/beibeiliu/ov580/test_trc/User1\sequence.28_training_dense_right.trc
DataRate	CameraRate	NumFrames	NumMarkers	Units	OrigDataRate	OrigDataStartFrame	OrigNumFrames
120	120	10	19	mm	120	1	67
Frame#	Time	ThumbCMC			ThumbMCP			ThumbIP			ThumbTip			IndexMCP			IndexPIP			IndexTip			MiddleMCP			MiddlePIP			MiddleTip			RingMCP			RingPIP			RingTip			PinkyMCP			PinkyPIP			PinkyTip			BackHand1			BackHand2			BackHand3	
		X0	Y0	Z0	X1	Y1	Z1	X2	Y2	Z2	X3	Y3	Z3	X4	Y4	Z4	X5	Y5	Z5	X6	Y6	Z6	X7	Y7	Z7	X8	Y8	Z8	X9	Y9	Z9	X10	Y10	Z10	X11	Y11	Z11	X12	Y12	Z12	X13	Y13	Z13	X14	Y14	Z14	X15	Y15	Z15	X16	Y16	Z16	X17	Y17	Z17	X18	Y18	Z18	
0	0	135.498	18.3001	94.0968	109.66	11.0685	71.2115	97.8074	9.51088	45.2756	86.9575	4.69074	25.536	155.921	39.7825	12.9117	157.885	41.4268	-17.6425	158.065	41.3411	-40.5554	187.737	35.1727	6.67589	187.22	34.9658	-23.68	192.567	25.3332	-54.683	206.39	25.177	14.3841	212.341	25.8115	-15.8539	216.579	16.1375	-42.9079	221.2	4.95611	30.7256	231.867	4.03722	11.048	241.015	6.02448	-9.64639	200.278	25.3743	68.3635	199.964	28.1781	103.542	167.849	37.5889	84.9138	
1	0.00833333	133.056	19.2851	89.255	113.368	9.46327	71.8361	99.1621	9.38882	43.6843	83.5535	3.92735	28.0591	155.085	39.0986	12.8797	155.329	43.6539	-16.8212	161.061	40.6091	-43.8164	183.246	35.9507	7.25852	185.958	34.902	-27.6952	191.227	25.7755	-56.7379	204.102	26.8982	12.2387	215.607	24.9478	-12.1515	214.791	17.3133	-42.4096	219.771	4.86346	31.3713	231.824	4.22697	9.88319	236.723	6.33166	-14.5178	199.2	24.8415	68.4494	199.275	27.0255	103.023	166.892	38.8867	81.9194	
2	0.0166667	131.688	18.4803	94.7432	113.783	9.47679	69.487	97.8387	9.62482	45.0596	86.6337	5.00125	26.7558	155.495	38.927	12.7638	154.206	42.9678	-12.8136	161.411	40.3524	-40.0772	183.956	36.2746	2.59225	185.52	34.9441	-26.8229	191.325	24.9396	-57.5846	206.369	25.4869	14.3264	211.379	26.1421	-12.1432	214.769	16.7024	-40.5703	220.376	5.98998	30.6109	230.581	3.06109	12.5769	236.133	6.23079	-10.3605	200.135	24.8132	67.8	202.472	27.266	100.831	168.871	38.5269	83.8267	
3	0.025	130.683	19.0045	91.7234	111.051	9.45044	72.2102	98.3412	9.5385	43.435	83.9964	4.30231	25.9854	152.946	38.7552	14.1968	154.278	42.2434	-17.2617	162.221	39.6241	-41.7248	187.25	34.417	4.94509	189.043	32.6886	-27.6107	192.949	23.1112	-55.4948	204.915	26.7075	12.5062	212.587	25.6001	-16.3517	212.718	16.4148	-41.6292	219.63	5.23126	31.6186	228.634	3.23129	14.0169	237.785	4.99371	-14.0164	197.645	26.8058	67.6715	200.252	24.9472	103.079	165.004	38.4271	79.951	
4	0.0333333	129.782	20.1993	90.6038	111.971	9.66824	71.1481	97.8602	9.53724	44.9512	84.9736	4.08099	25.0213	154.875	39.4373	10.7827	153.819	42.9677	-13.9915	161.857	39.0507	-40.9747	182.119	35.512	7.69195	186.42	32.729	-27.7067	189.694	25.3243	-54.3231	202.943	24.4576	16.736	209.256	25.8562	-17.3563	212.697	16.9308	-43.4547	219.965	3.68302	34.2956	230.154	4.10547	9.51503	237.139	4.2304	-14.4292	197.76	25.1416	70.6477	203.375	25.9176	103.106	169.931	36.4652	83.7689	
5	0.0416667	130.804	20.4945	89.2144	114.219	9.92213	70.0094	100.336	8.29403	48.3272	86.6798	4.17478	27.848	152.176	40.2641	11.9234	158.253	42.4426	-16.438	156.7	42.8011	-44.2887	185.294	35.675	7.76397	189.728	34.3117	-23.9926	190.042	26.604	-52.8135	203.456	26.716	13.3699	213.086	26.4344	-13.7908	211.313	18.3219	-39.5309	222.772	4.76847	31.429	228.562	5.78332	12.9047	240.36	6.41329	-14.8595	202.276	24.193	67.8395	200.973	26.3855	100.048	170.251	37.7392	79.7347	
6	0.05	133.541	21.1999	90.2487	111.148	13.2898	72.0704	95.9973	12.5872	46.6044	83.2222	6.11242	28.5813	154.286	42.1193	12.0236	154.186	46.3956	-16.6633	162.407	42.659	-42.6506	183.741	39.2814	6.70564	188.129	37.1107	-24.0546	191.293	27.9559	-54.5096	208.162	27.8842	14.4114	214.717	27.8424	-13.6401	215.393	19.4721	-39.1666	219.941	6.86171	33.3775	232.876	5.14815	11.5163	240.596	7.78904	-14.8983	199.618	27.7227	70.8548	199.283	28.0582	102.441	168.621	39.4588	80.6442	
7	0.0583333	132.51	22.8586	94.49	111.707	15.2851	71.7611	97.4519	14.0577	47.6099	83.6099	9.19755	26.9875	153.167	45.5668	11.7405	157.798	46.6968	-18.3811	161.148	45.7608	-45.2319	186.15	39.7474	4.89409	188.645	38.3011	-25.6659	194.46	28.2535	-58.2219	208.999	28.6819	13.5218	216.067	28.9574	-14.891	213.315	23.0053	-39.6198	220.265	8.45248	34.4938	229.61	8.32761	14.1267	241.511	10.9504	-11.6819	199.965	31.1007	66.4977	200.671	30.0893	104.202	167.05	42.4683	83.6911	
8	0.0666667	135.456	23.8022	89.5672	111.962	15.6854	72.1399	99.868	14.3203	49.1533	84.114	9.47234	29.548	155.244	45.6198	10.7352	156.796	49.3687	-16.3355	162.24	46.5072	-40.2612	186.793	40.8117	6.33722	189.661	38.5698	-27.5981	191.659	31.576	-52.3649	205.533	30.8696	17.221	212.914	31.3675	-12.1934	215.505	23.1162	-42.1619	222.287	9.49913	32.99	229.418	9.29085	11.1726	241.542	9.85142	-8.84422	204.177	30.5569	68.2138	204.055	29.8618	101.12	170.464	41.3211	84.4851	
9	0.075	133.54	24.5827	94.5719	112.161	15.4349	71.3492	99.1104	15.1269	49.2203	84.3961	11.2786	27.9055	157.811	45.8004	11.2359	155.239	48.9867	-12.9518	161.507	46.3176	-43.1881	184.754	43.1123	3.71894	189.693	39.4472	-27.1537	191.543	33.1493	-53.2051	206.981	30.7307	17.1789	212.354	31.8897	-12.2361	214.314	23.9766	-40.4057	224.807	8.79777	33.4063	231.314	9.45952	12.2872	238.901	13.548	-11.0408	198.959	29.3924	70.3427	204.09	29.4204	100.035	173.077	42.6427	85.4951	
